<svg xmlns="http://www.w3.org/2000/svg" viewBox="0 0 799 388"><defs><style>.cls-1{fill:#fff;}.cls-2{fill:#f15a24;}</style></defs><title>cohortHDR</title><g id="Layer_2" data-name="Layer 2"><g id="Layer_1-2" data-name="Layer 1"><rect class="cls-1" width="799" height="388"/><path d="M280.44,136.27c0-4.11-.47-26.56-.79-29.25-.47-3.79-2.53-4.42-6.8-4.42h-8.69c-.79,0-1.27-.16-1.27-1.11V97.22c0-.63.48-.79,1.11-.79,2.05,0,9,.47,23.24.47,4.11,0,19.92-.47,23.56-.47,20.39,0,37.47,2.37,51.39,14.23,10.27,8.85,17.55,22,17.55,40.32,0,18.18-5.22,30.2-15.66,41.58-15.18,16.76-37,16.76-49.17,16.76-10,0-22-.47-29.09-.47-13.76,0-20.08.47-22.3.47-.79,0-1.1-.32-1.1-1.11V204.1c0-.63.47-.95,1.26-.95h10.59c3,0,4.75-1.26,5.06-3.79.48-3.32,1.11-38.9,1.11-51.23ZM295,151.61c0,2.06.16,28.93.31,38.74A14.88,14.88,0,0,0,298,199.2c2.53,3.32,8.86,5.06,16.76,5.06,16.13,0,29.25-7,37.16-17.07,6.64-8.23,11.54-21.19,11.54-35.58,0-12.33-5.38-26.56-13-34.94-8.22-9-22.13-15.18-39.68-15.18-3.48,0-10,0-12.65,1.58-2.21,1.42-2.85,4-3,7.43-.16,6.64-.16,27.35-.16,29.88Z"/><path d="M463.38,183.55c2.21-2.37,18-40.16,19.29-42.22,1.1-2.21,18.34-39.37,18.81-42.53.32-1.74,2.06-1.9,3.64-1.9,21,0,26.4-.47,28.14-.47.79,0,1,.47,1,1.11v3.63c0,1-.16,1.43-1.26,1.43h-7c-4.74,0-5.22,2.84-5.22,6.48,0,4.58-.47,27.19-.47,37.79v11.06c0,7.91.47,33.52.47,36.69,0,6,1.42,8.53,5.38,8.53h9.33c.95,0,1.1.48,1.1,1.11v3.64c0,.95-.15,1.42-1.42,1.42-1.9,0-4.74-.47-22.14-.47-14.54,0-20.71.47-22.76.47-1.11,0-1.27-.47-1.27-1.42v-3.64c0-.79.16-1.11,1.27-1.11H501c2.69,0,4.11-.94,4.43-5.69.15-1.89.31-29.41.31-41.11V146.23c0-10.43,0-38.57-.47-40H505c-1.58,2.06-24,51.86-24.82,53.44-.95,1.9-18.5,42.22-19.13,43.64s-1.9,3.8-3.17,3.8c-.94,0-1.74-1.27-2.37-2.85-.47-1.11-20.71-51.07-21.5-53-3-7.27-17.39-42.69-19.61-44.58-.63,2.21-.95,42.21-.95,44.11s-.15,35.26.32,40.79c.79,9,2.21,11.54,7.27,11.54h7.91c.95,0,1.11.48,1.11,1.11v4c0,.64-.16,1.11-1.43,1.11-1.74,0-6-.47-19.13-.47-13.44,0-19,.47-20.4.47-1.26,0-1.42-.16-1.42-1.42v-3.8a.84.84,0,0,1,.95-.95H397c6,0,7.43-4.11,8.38-9.48,1.9-11.23,2.37-51.7,2.37-54.55,0-2.21,0-26.09-.16-30.67-.15-3.64,0-5.85-6.48-5.85h-9.64c-.95,0-1.11-.48-1.11-1.11V97.38c0-.48.16-.95,1.11-.95,1.58,0,5.85.47,19.29.47,7.43,0,11.54-.47,13.44-.47,2.37,0,3.32.63,4.11,2.69Z"/><path d="M281.75,264.94a27.21,27.21,0,0,0,4.94,14.71,12.44,12.44,0,0,0,10.55,4.94c4.84,0,7.36-1.06,10.65-4.16a.49.49,0,0,1,.77,0l1,1c.39.38.49.67,0,1.25A22.39,22.39,0,0,1,294,289.53c-5.13,0-10.55-1.16-15-6.78a20.06,20.06,0,0,1-4.36-13.17c0-11.32,7.94-22.75,20.72-22.75,10.07,0,13.17,5.81,13.17,7.84a3.3,3.3,0,0,1-3.59,3.39c-2.22,0-3.87-1.26-5.32-3.87-2.13-4-4.16-4.26-6.49-4.26C287.65,249.93,281.75,255,281.75,264.94Z"/><path d="M319.6,282.85c-4.45-5.33-5.32-8.91-5.32-15.78,0-4.94,2.61-11.14,8.32-15.59a21,21,0,0,1,13-4.65,20.46,20.46,0,0,1,13.55,5.62,21.48,21.48,0,0,1,6.58,15.78c0,10.55-9.48,21.3-21.39,21.3A19.53,19.53,0,0,1,319.6,282.85Zm28-15.59c0-10.75-7.84-17.52-12.78-17.52a9.35,9.35,0,0,0-7.45,3.09c-3.78,3.88-5.13,7.85-5.13,15.2,0,5.43.58,9.11,3.68,13.56a10.71,10.71,0,0,0,9.58,5C342.84,286.62,347.58,277.62,347.58,267.26Z"/><path d="M368.11,235.6c0-5.9-1.17-7-4.65-8.13l-1.65-.58c-.58-.2-.68-.29-.68-.58v-.87c0-.39.29-.49,1.17-1l10.07-5.33a5.06,5.06,0,0,1,2.22-.77c.58,0,1,.77.78,2.42s-.29,21.3-.29,26.14v6.19h.48a18.49,18.49,0,0,1,13.26-6.29,12.71,12.71,0,0,1,9.59,3.87c4.36,4.07,4.16,9,4.16,14.24v5.52c0,5.42.2,11.42.2,13.26,0,1.16,1.54,1.45,3.58,1.45H408c.78,0,1.07.2,1.07.87v1.46c0,.77-.19,1.16-.78,1.16s-3.77-.29-9.29-.29c-4.74,0-8.23.29-9.1.29-.68,0-.87-.29-.87-1.07V286c0-.49.09-.78.68-.78h2.22c1.65,0,3.58-.19,3.68-1.84.1-1.35,0-6.49,0-9.58V265.9c0-5.42-.39-9.29-3.19-11.9a8.88,8.88,0,0,0-6.39-2.71,11.81,11.81,0,0,0-9,4.06,8.43,8.43,0,0,0-1.93,4.75v21.1c0,3.1.29,4,2.13,4h2.9c.68,0,1.07.2,1.07.78v1.64c0,.68-.2,1.07-.78,1.07-.77,0-4.74-.29-9.2-.29-4.84,0-8.52.29-9.39.29-.39,0-.68-.29-.68-1V286c0-.68.39-.78,1.46-.78h2c1.55,0,3-.39,3.19-1.55.3-1.84.3-12.49.3-18.78Z"/><path d="M468.4,262.61c0-4.94-.77-5.9-3.48-7.36l-1.84-1c-.58-.2-.78-.29-.78-.68V253c0-.39.2-.58.78-.87l9.58-4.94a2.93,2.93,0,0,1,1.36-.39c.58,0,.67.58.67,1.16l.49,6.88h.39c2.9-4.46,7.45-8.43,11.61-8.43,3.3,0,4.94,2,4.94,4.26,0,2.81-2.32,4.75-4.07,4.75a6.28,6.28,0,0,1-2.8-.78,6.31,6.31,0,0,0-3.2-.77c-1.55,0-4.06,1-5.71,4.07a10.42,10.42,0,0,0-1,3.09V281.2c0,3,.68,4,2.71,4h4.55c.58,0,.68.29.68.87v1.75c0,.58-.1.87-.48.87-.58,0-5-.29-10.27-.29-6,0-10.06.29-10.65.29-.38,0-.58-.2-.58-1V286c0-.67.2-.87,1.07-.87h3.77c1.46,0,2.13-.58,2.13-1.84.1-3.19.1-6.58.1-11.62Z"/><path d="M509.64,276.26c0,7.27,3.29,8.52,5,8.52,2.23,0,5-.38,6.39-1.25a.8.8,0,0,1,1.17.19l.48.87a.78.78,0,0,1-.19,1.07,16.35,16.35,0,0,1-10.75,3.87c-4.74,0-9.39-4.55-9.39-8.23,0-4,.29-12.49.29-13.85v-2.13c0-1.74.1-8.32.19-12.39H497c-.87,0-1.46-.39-1.46-1.16s.59-1.07,1.75-1.74c2.32-1.36,9.78-8.81,11-12.11a1.29,1.29,0,0,1,1.35-1c.78,0,1,.67,1,1.45l-.49,9.49h13.46c.58,0,.87.48.68.87l-1,3.39c-.1.48-.29.77-.87.77H509.93c-.19,4.45-.29,9.2-.29,13.65Z"/><path d="M336.89,64.94h3a5.3,5.3,0,0,1,4,1.31,3.94,3.94,0,0,1,1.11,3,5.53,5.53,0,0,1-1.67,4,7.18,7.18,0,0,1-5.31,1.87h-3.77Zm1.31,8.13a4.79,4.79,0,0,0,3.39-1.23,3.57,3.57,0,0,0,1-2.54,2.23,2.23,0,0,0-.59-1.61,3.22,3.22,0,0,0-2.34-.73h-1.08l-1.65,6.11Z"/><path d="M348.24,64.94h2.23l-2.72,10.14h-2.23Z"/><path d="M350,73.36l1.68-1.42a3.64,3.64,0,0,0,2.83,1.33c.9,0,1.55-.42,1.55-1.06,0-.49-.36-.78-1.72-1.33s-2.49-1.25-2.49-2.74c0-2.07,1.85-3.34,4-3.34a4.93,4.93,0,0,1,3.79,1.5l-1.54,1.54a3.32,3.32,0,0,0-2.43-1.09c-.94,0-1.48.52-1.48,1s.41.77,1.79,1.33,2.43,1.26,2.43,2.74c0,2.13-1.9,3.37-4,3.37A5.28,5.28,0,0,1,350,73.36Z"/><path d="M360.07,70.84a6.19,6.19,0,0,1,6.17-6.07,4.41,4.41,0,0,1,4.05,2.16l-1.84,1.29A2.8,2.8,0,0,0,366,66.83a3.84,3.84,0,0,0-3.57,3.92,2.35,2.35,0,0,0,2.47,2.45,3.53,3.53,0,0,0,2.38-1l1.45,1.5a5.37,5.37,0,0,1-3.84,1.55C362.08,75.25,360.07,73.54,360.07,70.84Z"/><path d="M372.61,64.94h2.23l-2.72,10.14h-2.23Z"/><path d="M377.37,64.94h3.22a4.19,4.19,0,0,1,3.18,1,2.8,2.8,0,0,1,.78,2.09c0,2.52-2.15,4-4.92,4H377.7l-.82,3.07h-2.23Zm2.38,5.11c1.47,0,2.47-.66,2.47-1.81a1.15,1.15,0,0,0-.33-.84A1.83,1.83,0,0,0,380.5,67h-1.45l-.82,3.09Z"/><path d="M387.2,64.94h2.23l-2.17,8.11h5.05l-.55,2h-7.28Z"/><path d="M396.26,64.94h7.58l-.54,2h-5.36L397.39,69h4.71l-.54,2h-4.7l-.58,2.15h5.44l-.53,2h-7.65Z"/><path d="M405.89,64.94h2.32l1.46,4.29,3.78-4.29H416l-2.72,10.14h-2.26l1.76-6.62-4,4.33h-.06l-1.62-4.28-1.77,6.57h-2.23Z"/><path d="M421.82,64.87H424l1.61,10.21h-2.29L423,72.81h-4.29l-1.53,2.27h-2.4Zm.88,6-.46-3.35L420,70.84Z"/><path d="M429.53,64.94h2.23l-1.2,4.49,5-4.49h3l-4.94,4.25L436,75.08h-2.44l-1.71-4.56-2.1,1.79L429,75.08h-2.23Z"/><path d="M440.16,64.94h2.23l-2.72,10.14h-2.23Z"/><path d="M444.92,64.94H447l2.95,6.45,1.74-6.45h2.2l-2.72,10.14h-1.9l-3.07-6.65-1.78,6.65h-2.2Z"/><path d="M454.36,70.85a6.24,6.24,0,0,1,6.33-6.08,4.92,4.92,0,0,1,4.14,1.75L463.18,68a3.4,3.4,0,0,0-2.67-1.17,3.91,3.91,0,0,0-3.83,4,2.37,2.37,0,0,0,2.59,2.43,4.31,4.31,0,0,0,1.81-.39l.48-1.65h-2.25l.52-1.93h4.4L462.8,74.3a7.25,7.25,0,0,1-3.68,1C456.81,75.25,454.36,73.88,454.36,70.85Z"/><polygon points="325.5 66.23 232.5 66.23 232.5 323.23 566.5 323.23 566.5 66.23 471.5 66.23 471.5 75.23 558.5 75.23 558.5 315.23 240.5 315.23 240.5 74.23 325.5 74.23 325.5 66.23"/><polygon class="cls-2" points="461.46 257.8 448.78 271.16 452.6 289.18 435.97 281.25 420.01 290.45 422.41 272.19 408.73 259.86 426.84 256.5 434.34 239.67 443.14 255.86 461.46 257.8"/></g></g></svg>