<svg xmlns="http://www.w3.org/2000/svg" viewBox="0 0 334 258.46"><defs><style>.cls-1{fill:#f15a24;}</style></defs><title>DMlogo</title><g id="Layer_2" data-name="Layer 2"><g id="Layer_1-2" data-name="Layer 1"><path d="M47.94,71.5c0-4.11-.47-26.56-.79-29.25-.47-3.79-2.53-4.42-6.8-4.42H31.66c-.79,0-1.27-.16-1.27-1.11V32.45c0-.63.48-.79,1.11-.79,2,0,9,.47,23.24.47,4.11,0,19.92-.47,23.56-.47,20.39,0,37.47,2.37,51.39,14.23,10.27,8.85,17.55,22,17.55,40.32,0,18.18-5.22,30.2-15.66,41.58-15.18,16.76-37,16.76-49.17,16.76-10,0-22-.47-29.09-.47-13.76,0-20.08.47-22.3.47-.79,0-1.1-.31-1.1-1.11v-4.11c0-.63.47-1,1.26-1H41.77c3,0,4.75-1.26,5.06-3.79.48-3.32,1.11-38.89,1.11-51.23ZM62.49,86.84c0,2.06.16,28.94.31,38.74a14.88,14.88,0,0,0,2.69,8.85c2.53,3.32,8.86,5.06,16.76,5.06,16.13,0,29.25-7,37.16-17.07,6.64-8.23,11.54-21.19,11.54-35.58,0-12.33-5.38-26.56-13-34.94-8.22-9-22.13-15.18-39.68-15.18-3.48,0-10,0-12.65,1.58-2.21,1.42-2.85,4-3,7.43-.16,6.64-.16,27.35-.16,29.88Z"/><path d="M230.88,118.78c2.21-2.37,18-40.16,19.29-42.22C251.27,74.35,268.51,37.19,269,34c.32-1.74,2.06-1.9,3.64-1.9,21,0,26.4-.47,28.14-.47.79,0,.95.47.95,1.11V36.4c0,1-.16,1.43-1.26,1.43h-7c-4.74,0-5.22,2.84-5.22,6.48,0,4.58-.47,27.19-.47,37.79V93.17c0,7.9.47,33.51.47,36.68,0,6,1.42,8.53,5.38,8.53H303c.95,0,1.1.48,1.1,1.11v3.64c0,1-.15,1.42-1.42,1.42-1.9,0-4.74-.47-22.14-.47-14.54,0-20.71.47-22.76.47-1.11,0-1.27-.47-1.27-1.42v-3.64c0-.79.16-1.11,1.27-1.11h10.75c2.69,0,4.11-.94,4.43-5.69.15-1.89.31-29.41.31-41.11V81.46c0-10.43,0-38.57-.47-40h-.32c-1.58,2.06-24,51.86-24.82,53.44-.95,1.9-18.5,42.22-19.13,43.64s-1.9,3.8-3.17,3.8c-.94,0-1.74-1.27-2.37-2.85-.47-1.11-20.71-51.07-21.5-53-3-7.27-17.39-42.69-19.61-44.58-.63,2.21-1,42.21-1,44.11s-.15,35.26.32,40.79c.79,9,2.21,11.54,7.27,11.54h7.91c1,0,1.11.48,1.11,1.11v3.95c0,.64-.16,1.11-1.43,1.11-1.74,0-6-.47-19.13-.47-13.44,0-19,.47-20.4.47-1.26,0-1.42-.16-1.42-1.42v-3.8a.84.84,0,0,1,1-1h8.38c6,0,7.43-4.11,8.38-9.48,1.9-11.23,2.37-51.7,2.37-54.55,0-2.21,0-26.09-.16-30.67-.15-3.64,0-5.85-6.48-5.85h-9.64c-.95,0-1.11-.48-1.11-1.11V32.61c0-.48.16-.95,1.11-.95,1.58,0,5.85.47,19.29.47,7.43,0,11.54-.47,13.44-.47,2.37,0,3.32.63,4.11,2.69Z"/><path d="M49.25,200.17a27.21,27.21,0,0,0,4.94,14.71,12.44,12.44,0,0,0,10.55,4.94c4.84,0,7.36-1.06,10.65-4.16a.49.49,0,0,1,.77,0l1,1c.39.38.49.67,0,1.25a22.39,22.39,0,0,1-15.59,6.88c-5.13,0-10.55-1.16-15-6.78a20.06,20.06,0,0,1-4.36-13.17c0-11.32,7.94-22.75,20.72-22.75,10.07,0,13.17,5.81,13.17,7.84a3.3,3.3,0,0,1-3.59,3.39c-2.22,0-3.87-1.26-5.32-3.87-2.13-4-4.16-4.26-6.49-4.26C55.15,185.16,49.25,190.19,49.25,200.17Z"/><path d="M87.1,218.08c-4.45-5.33-5.32-8.91-5.32-15.78,0-4.94,2.61-11.14,8.32-15.59a21,21,0,0,1,13-4.65,20.46,20.46,0,0,1,13.55,5.62,21.48,21.48,0,0,1,6.58,15.78c0,10.55-9.48,21.3-21.39,21.3A19.53,19.53,0,0,1,87.1,218.08Zm28-15.59c0-10.75-7.84-17.52-12.78-17.52a9.35,9.35,0,0,0-7.45,3.09c-3.78,3.88-5.13,7.85-5.13,15.2,0,5.43.58,9.11,3.68,13.56a10.71,10.71,0,0,0,9.58,5C110.34,221.85,115.08,212.85,115.08,202.49Z"/><path d="M135.61,170.83c0-5.9-1.17-7-4.65-8.13l-1.65-.58c-.58-.2-.68-.29-.68-.58v-.87c0-.39.29-.49,1.17-1l10.07-5.33a5.19,5.19,0,0,1,2.22-.77c.58,0,1,.77.78,2.42s-.29,21.3-.29,26.14v6.2h.48a18.46,18.46,0,0,1,13.26-6.3,12.71,12.71,0,0,1,9.59,3.87c4.36,4.07,4.16,9,4.16,14.24v5.52c0,5.42.2,11.42.2,13.26,0,1.16,1.54,1.45,3.58,1.45h1.64c.78,0,1.07.2,1.07.87v1.46c0,.77-.19,1.16-.78,1.16s-3.77-.29-9.29-.29c-4.74,0-8.23.29-9.1.29-.68,0-.87-.29-.87-1.07v-1.64c0-.49.09-.78.68-.78h2.22c1.65,0,3.58-.19,3.68-1.84.1-1.35,0-6.48,0-9.58v-7.85c0-5.42-.39-9.29-3.19-11.9a8.88,8.88,0,0,0-6.39-2.71,11.81,11.81,0,0,0-9,4.06,8.43,8.43,0,0,0-1.93,4.75v21.1c0,3.1.29,4,2.13,4h2.9c.68,0,1.07.2,1.07.78v1.64c0,.68-.2,1.07-.78,1.07-.77,0-4.74-.29-9.2-.29-4.84,0-8.52.29-9.39.29-.39,0-.68-.29-.68-1v-1.74c0-.68.39-.78,1.46-.78h2c1.55,0,3-.39,3.19-1.55.3-1.84.3-12.49.3-18.78Z"/><path d="M235.9,197.84c0-4.93-.77-5.9-3.48-7.35l-1.84-1c-.58-.2-.78-.29-.78-.68v-.58c0-.39.2-.58.78-.87l9.58-4.94a2.93,2.93,0,0,1,1.36-.39c.58,0,.67.58.67,1.16l.49,6.88h.39c2.9-4.46,7.45-8.43,11.61-8.43,3.3,0,4.94,2,4.94,4.26,0,2.81-2.32,4.75-4.07,4.75a6.28,6.28,0,0,1-2.8-.78,6.31,6.31,0,0,0-3.2-.77c-1.55,0-4.06,1-5.71,4.07a10.42,10.42,0,0,0-1,3.09v20.14c0,3,.68,4,2.71,4h4.55c.58,0,.68.29.68.87V223c0,.58-.1.87-.48.87-.58,0-5-.29-10.27-.29-6,0-10.06.29-10.65.29-.38,0-.58-.2-.58-1v-1.65c0-.67.2-.87,1.07-.87h3.77c1.46,0,2.13-.58,2.13-1.84.1-3.19.1-6.58.1-11.62Z"/><path d="M277.14,211.49c0,7.27,3.29,8.52,5,8.52,2.23,0,5-.38,6.39-1.25a.8.8,0,0,1,1.17.19l.48.87a.78.78,0,0,1-.19,1.07,16.35,16.35,0,0,1-10.75,3.87c-4.74,0-9.39-4.55-9.39-8.23,0-4,.29-12.49.29-13.85v-2.13c0-1.74.1-8.32.19-12.39h-5.9c-.87,0-1.46-.39-1.46-1.16s.59-1.07,1.75-1.74c2.32-1.36,9.78-8.81,11-12.1a1.29,1.29,0,0,1,1.35-1c.78,0,1,.67,1,1.45l-.49,9.49h13.46c.58,0,.87.48.68.87l-1,3.39c-.1.48-.29.77-.87.77H277.43c-.19,4.46-.29,9.2-.29,13.65Z"/><path d="M104.39.17h3a5.3,5.3,0,0,1,4,1.31,4,4,0,0,1,1.11,3,5.53,5.53,0,0,1-1.67,4,7.18,7.18,0,0,1-5.31,1.87h-3.77ZM105.7,8.3a4.79,4.79,0,0,0,3.39-1.23,3.57,3.57,0,0,0,1-2.54,2.23,2.23,0,0,0-.59-1.61,3.22,3.22,0,0,0-2.34-.73h-1.08L104.44,8.3Z"/><path d="M115.74.17H118l-2.72,10.14H113Z"/><path d="M117.47,8.59l1.68-1.42A3.64,3.64,0,0,0,122,8.5c.9,0,1.55-.42,1.55-1.06s-.36-.78-1.72-1.33-2.49-1.24-2.49-2.74c0-2.07,1.85-3.34,4-3.34a4.93,4.93,0,0,1,3.79,1.5L125.6,3.07A3.32,3.32,0,0,0,123.17,2c-.94,0-1.48.52-1.48,1s.41.77,1.79,1.33,2.43,1.26,2.43,2.74c0,2.13-1.9,3.38-4,3.38A5.29,5.29,0,0,1,117.47,8.59Z"/><path d="M127.57,6.07A6.19,6.19,0,0,1,133.74,0a4.42,4.42,0,0,1,4,2.16L136,3.45a2.8,2.8,0,0,0-2.49-1.39A3.84,3.84,0,0,0,129.89,6a2.35,2.35,0,0,0,2.47,2.45,3.53,3.53,0,0,0,2.38-1l1.45,1.5a5.37,5.37,0,0,1-3.84,1.55C129.58,10.48,127.57,8.77,127.57,6.07Z"/><path d="M140.11.17h2.23l-2.72,10.14h-2.23Z"/><path d="M144.87.17h3.22a4.19,4.19,0,0,1,3.18,1,2.8,2.8,0,0,1,.78,2.09c0,2.52-2.15,4-4.92,4H145.2l-.82,3.07h-2.23Zm2.38,5.12c1.47,0,2.47-.67,2.47-1.81a1.12,1.12,0,0,0-.33-.84A1.79,1.79,0,0,0,148,2.19h-1.45l-.82,3.1Z"/><path d="M154.7.17h2.23l-2.17,8.11h5.05l-.55,2H152Z"/><path d="M163.76.17h7.58l-.54,2h-5.36l-.55,2.07h4.71l-.54,1.95h-4.7l-.58,2.15h5.44l-.53,2H161Z"/><path d="M173.39.17h2.32l1.46,4.29L181,.17h2.58l-2.72,10.14h-2.26l1.76-6.62-4,4.33h-.06l-1.62-4.28-1.77,6.57h-2.23Z"/><path d="M189.32.1h2.14l1.61,10.21h-2.29L190.46,8h-4.29l-1.53,2.27h-2.4Zm.88,6-.46-3.35-2.23,3.35Z"/><path d="M197,.17h2.23l-1.2,4.49,5-4.49h3l-4.94,4.25,2.39,5.89h-2.44l-1.71-4.56-2.1,1.79-.74,2.77h-2.23Z"/><path d="M207.66.17h2.23l-2.72,10.14h-2.23Z"/><path d="M212.42.17h2.06l3,6.45L219.17.17h2.2l-2.72,10.14h-1.9l-3.07-6.65-1.78,6.65h-2.2Z"/><path d="M221.86,6.08A6.24,6.24,0,0,1,228.19,0a5,5,0,0,1,4.14,1.75l-1.65,1.46A3.4,3.4,0,0,0,228,2a3.92,3.92,0,0,0-3.83,4,2.37,2.37,0,0,0,2.59,2.43,4.31,4.31,0,0,0,1.81-.39l.48-1.65h-2.25l.52-1.93h4.4L230.3,9.53a7.25,7.25,0,0,1-3.68,1C224.31,10.48,221.86,9.11,221.86,6.08Z"/><polygon points="93 1.46 0 1.46 0 258.46 334 258.46 334 1.46 239 1.46 239 10.46 326 10.46 326 250.46 8 250.46 8 9.46 93 9.46 93 1.46"/><polygon class="cls-1" points="228.96 193.03 216.28 206.39 220.1 224.41 203.47 216.48 187.51 225.68 189.91 207.42 176.23 195.09 194.34 191.73 201.84 174.9 210.64 191.09 228.96 193.03"/></g></g></svg>